<svg xmlns="http://www.w3.org/2000/svg" version="1.1" xmlns:xlink="http://www.w3.org/1999/xlink" xmlns:svgjs="http://svgjs.dev/svgjs" width="1500" height="1500" viewBox="0 0 1500 1500"><rect width="1500" height="1500" fill="#ffffff"></rect><g transform="matrix(0.6666666666666666,0,0,0.6666666666666666,249.39393939393932,648.3816757254448)"><svg viewBox="0 0 396 81" data-background-color="#ffffff" preserveAspectRatio="xMidYMid meet" height="306" width="1500" xmlns="http://www.w3.org/2000/svg" xmlns:xlink="http://www.w3.org/1999/xlink"><g id="tight-bounds" transform="matrix(1,0,0,1,0.24000000000003752,-0.15154771451483384)"><svg viewBox="0 0 395.5199999999999 81.30309542902967" height="81.30309542902967" width="395.5199999999999"><g><svg viewBox="0 0 395.52000000000004 81.30309542902968" height="81.30309542902967" width="395.5199999999999"><g><svg viewBox="0 0 395.52000000000004 81.30309542902968" height="81.30309542902968" width="395.52000000000004"><g id="textblocktransform"><svg viewBox="0 0 395.52000000000004 81.30309542902968" height="81.30309542902968" width="395.52000000000004" id="textblock"><g><svg viewBox="0 0 395.52000000000004 81.30309542902968" height="81.30309542902968" width="395.52000000000004"><g transform="matrix(1,0,0,1,0,0)"><svg width="395.52000000000004" viewBox="3 -37.7 187.03 38.45" height="81.30309542902968" data-palette-color="#000000"><path d="M9.35 0L3 0 3-34.55 19.7-34.55 19-29.8 9.35-29.8 9.35-19.25 17.75-19.25 17.75-14.5 9.35-14.5 9.35 0ZM32.4-27.15Q37.4-27.15 40.17-23.65 42.95-20.15 42.95-13.25L42.95-13.25Q42.95-6.65 40.15-2.95 37.35 0.75 32.4 0.75L32.4 0.75Q27.45 0.75 24.65-2.88 21.85-6.5 21.85-13.25L21.85-13.25Q21.85-19.95 24.65-23.55 27.45-27.15 32.4-27.15L32.4-27.15ZM32.4-22.5Q30.25-22.5 29.25-20.38 28.25-18.25 28.25-13.25L28.25-13.25Q28.25-8.2 29.25-6.08 30.25-3.95 32.4-3.95L32.4-3.95Q34.55-3.95 35.55-6.08 36.55-8.2 36.55-13.25L36.55-13.25Q36.55-18.3 35.55-20.4 34.55-22.5 32.4-22.5L32.4-22.5ZM53.1 0.75Q50.4 0.75 48.82-0.93 47.25-2.6 47.25-5.4L47.25-5.4 47.25-37.05 53.4-37.7 53.4-5.65Q53.4-5 53.7-4.6 54-4.2 54.6-4.2L54.6-4.2Q54.95-4.2 55.27-4.3 55.6-4.4 55.7-4.4L55.7-4.4 56.9-0.2Q55.2 0.75 53.1 0.75L53.1 0.75ZM65.54 0.75Q62.84 0.75 61.27-0.93 59.69-2.6 59.69-5.4L59.69-5.4 59.69-37.05 65.84-37.7 65.84-5.65Q65.84-5 66.14-4.6 66.44-4.2 67.04-4.2L67.04-4.2Q67.39-4.2 67.72-4.3 68.04-4.4 68.14-4.4L68.14-4.4 69.34-0.2Q67.64 0.75 65.54 0.75L65.54 0.75ZM81.79-27.15Q86.79-27.15 89.57-23.65 92.34-20.15 92.34-13.25L92.34-13.25Q92.34-6.65 89.54-2.95 86.74 0.75 81.79 0.75L81.79 0.75Q76.84 0.75 74.04-2.88 71.24-6.5 71.24-13.25L71.24-13.25Q71.24-19.95 74.04-23.55 76.84-27.15 81.79-27.15L81.79-27.15ZM81.79-22.5Q79.64-22.5 78.64-20.38 77.64-18.25 77.64-13.25L77.64-13.25Q77.64-8.2 78.64-6.08 79.64-3.95 81.79-3.95L81.79-3.95Q83.94-3.95 84.94-6.08 85.94-8.2 85.94-13.25L85.94-13.25Q85.94-18.3 84.94-20.4 83.94-22.5 81.79-22.5L81.79-22.5ZM118.94-26.45L124.64-26.45 120.09 0 112.59 0 109.64-20.85 106.74 0 99.29 0 94.64-26.45 100.59-26.45 103.29-4.6 106.64-26.45 112.89-26.45 116.09-4.6 118.94-26.45ZM164.18-34.55L166.38 0 160.33 0 159.73-14.6Q159.43-22.6 159.43-26L159.43-26 159.48-28.6 154.73-3.8 148.73-3.8 143.78-28.65Q143.83-27.15 143.83-24.05L143.83-24.05Q143.83-18.8 143.63-14.4L143.63-14.4 143.08 0 137.13 0 139.33-34.55 147.33-34.55 151.83-10.2 156.03-34.55 164.18-34.55ZM190.03-13.85Q190.03-13.4 189.88-11.3L189.88-11.3 176.23-11.3Q176.43-7.2 177.66-5.58 178.88-3.95 181.13-3.95L181.13-3.95Q182.68-3.95 183.93-4.48 185.18-5 186.63-6.15L186.63-6.15 189.18-2.65Q185.68 0.75 180.78 0.75L180.78 0.75Q175.58 0.75 172.81-2.85 170.03-6.45 170.03-13L170.03-13Q170.03-19.55 172.68-23.35 175.33-27.15 180.18-27.15L180.18-27.15Q184.83-27.15 187.43-23.78 190.03-20.4 190.03-13.85L190.03-13.85ZM184.03-15.3L184.03-15.65Q184.03-19.4 183.13-21.13 182.23-22.85 180.23-22.85L180.23-22.85Q178.38-22.85 177.41-21.18 176.43-19.5 176.23-15.3L176.23-15.3 184.03-15.3Z" opacity="1" transform="matrix(1,0,0,1,0,0)" fill="#000000" class="wordmark-text-0" data-fill-palette-color="primary" id="text-0"></path></svg></g></svg></g></svg></g></svg></g><g></g></svg></g><defs></defs></svg><rect width="395.5199999999999" height="81.30309542902967" fill="none" stroke="none" visibility="hidden"></rect></g></svg></g></svg>